<svg width="32" height="32" viewBox="0 0 32 32" fill="none" xmlns="http://www.w3.org/2000/svg">
<path d="M16 4V5.33333M16 26.6667V28M28 16H26.6667M5.33333 16H4M24.4853 24.4853L23.5427 23.5427M8.45733 8.45733L7.51467 7.51467M24.4853 7.51467L23.5427 8.45733M8.45733 23.5427L7.51467 24.4853M21.3333 16C21.3333 17.4145 20.7714 18.771 19.7712 19.7712C18.771 20.7714 17.4145 21.3333 16 21.3333C14.5855 21.3333 13.229 20.7714 12.2288 19.7712C11.2286 18.771 10.6667 17.4145 10.6667 16C10.6667 14.5855 11.2286 13.229 12.2288 12.2288C13.229 11.2286 14.5855 10.6667 16 10.6667C17.4145 10.6667 18.771 11.2286 19.7712 12.2288C20.7714 13.229 21.3333 14.5855 21.3333 16Z" stroke="#111928" stroke-width="2" stroke-linecap="round" stroke-linejoin="round"/>
</svg>
